<svg width="65" height="62" viewBox="0 0 65 62" fill="none" xmlns="http://www.w3.org/2000/svg">
<path opacity="0.5" d="M64.3152 1.2944L48.5754 57.0532C48.4954 57.3063 48.1753 57.3822 47.9885 57.205L37.4509 47.2074L45.3474 19.2648C45.4275 19.0117 45.1874 18.7839 44.9206 18.8598L15.4686 26.3517L4.98431 16.4047C4.79757 16.2275 4.8776 15.9238 5.14438 15.8479L63.8883 0.889429C64.1551 0.838808 64.3952 1.0666 64.3152 1.2944Z" fill="#00B37E"/>
<path opacity="0.5" d="M37.4503 47.207L33.3954 61.6339C33.3153 61.887 32.9952 61.9629 32.8084 61.7857L0.101774 30.7805C-0.0849687 30.6033 -0.00493647 30.2996 0.261839 30.2237L15.468 26.3512L37.4503 47.207Z" fill="#00B37E"/>
<path d="M45.3461 19.2643L37.4496 47.207L15.4673 26.3512L44.9193 18.8593C45.186 18.7834 45.4261 19.0112 45.3461 19.2643Z" fill="#00B37E"/>
</svg>
